<?xml version="1.0" encoding="utf-8"?>
<!DOCTYPE svg PUBLIC "-//W3C//DTD SVG 1.1 Tiny//EN" "http://www.w3.org/Graphics/SVG/1.1/DTD/svg11-tiny.dtd">
<svg version="1.1" baseProfile="tiny" id="Ebene_1" xmlns="http://www.w3.org/2000/svg" xmlns:xlink="http://www.w3.org/1999/xlink"
	 x="0px" y="0px" width="16px" height="16px" viewBox="0 0 16 16" xml:space="preserve">
<path fill="#999999" d="M-0.002-0.001v6.4L9.6,16.002l6.402-6.4L6.4-0.001H-0.002z M2.799,2.8c0.773-0.771,2.027-0.771,2.801,0
	c0.773,0.773,0.773,2.027,0,2.801c-0.771,0.773-2.027,0.773-2.801,0S2.025,3.573,2.799,2.8z"/>
<path fill="#FFFFFF" d="M1.119,1.12v4.8L9.6,14.4l4.803-4.802l-8.481-8.48H1.119V1.12z M2.799,2.8c0.773-0.771,2.027-0.771,2.801,0
	c0.773,0.773,0.773,2.027,0,2.801c-0.771,0.773-2.027,0.773-2.801,0S2.025,3.573,2.799,2.8z"/>
<path fill="#999999" d="M2.799,2.8c-0.773,0.773-0.773,2.027,0,2.801s2.027,0.773,2.801,0c0.773-0.771,0.773-2.027,0-2.801
	C4.826,2.028,3.574,2.026,2.799,2.8z M3.599,3.6c0.331-0.332,0.869-0.332,1.199,0c0.331,0.331,0.333,0.869,0,1.199
	c-0.333,0.331-0.868,0.333-1.199,0C3.268,4.468,3.268,3.931,3.599,3.6z"/>
<path fill="#4F4D40" d="M12.602,9.802l-2.801,2.801L5.798,8.6l2.8-2.797L12.602,9.802z"/>
</svg>
