<?xml version="1.0" encoding="utf-8"?>
<!-- Generator: Adobe Illustrator 16.0.0, SVG Export Plug-In . SVG Version: 6.00 Build 0)  -->
<!DOCTYPE svg PUBLIC "-//W3C//DTD SVG 1.1 Tiny//EN" "http://www.w3.org/Graphics/SVG/1.1/DTD/svg11-tiny.dtd">
<svg version="1.1" baseProfile="tiny" id="Ebene_1" xmlns="http://www.w3.org/2000/svg" xmlns:xlink="http://www.w3.org/1999/xlink"
	 x="0px" y="0px" width="32px" height="32px" viewBox="0 0 32 32" xml:space="preserve">
<circle fill="#FFFFFF" cx="16" cy="10.75" r="6"/>
<g id="EXT:tracks">
	<g id="mark">
		<path fill="#5687BD" stroke="#FFFFFF" stroke-miterlimit="10" d="M25.745,14.433L18.34,30.18c-0.428,0.896-1.363,1.445-2.34,1.445
			c-0.977,0-1.913-0.549-2.319-1.445L6.255,14.433c-0.529-1.119-0.672-2.401-0.672-3.642C5.583,5.034,10.242,0.375,16,0.375
			c5.759,0,10.417,4.659,10.417,10.417C26.417,12.032,26.273,13.314,25.745,14.433z M16,5.583c-2.868,0-5.208,2.34-5.208,5.208
			c0,2.869,2.34,5.208,5.208,5.208c2.87,0,5.209-2.339,5.209-5.208C21.209,7.923,18.87,5.583,16,5.583z"/>
	</g>
</g>
</svg>
